<?xml version="1.0" encoding="UTF-8"?>
<!DOCTYPE svg PUBLIC "-//W3C//DTD SVG 1.1//EN" "http://www.w3.org/Graphics/SVG/1.1/DTD/svg11.dtd">
<svg version="1.1" xmlns="http://www.w3.org/2000/svg" xmlns:xlink="http://www.w3.org/1999/xlink" x="0" y="0" width="1500" height="1500" viewBox="0, 0, 375, 375">
  <g id="Background">
    <rect x="0" y="0" width="375" height="375" fill="#FFFFFF"/>
  </g>
  <defs>
    <clipPath id="Clip_1">
      <path d="M240.75,100.785 L375,100.785 L375,234.961 L240.75,234.961 z"/>
    </clipPath>
  </defs>
  <g id="Layer_1">
    <g clip-path="url(#Clip_1)">
      <path d="M332.069,158.468 C332.807,160.238 333.25,162.156 333.545,164.074 L351.986,159.058 C351.101,157.435 350.51,155.518 350.51,153.452 L332.069,158.468 z" fill="#B7B7B7"/>
      <path d="M285.451,202.284 C287.369,202.874 289.139,203.907 290.614,205.234 L297.843,192.399 C295.925,191.662 294.302,190.629 292.68,189.449 L285.451,202.284 z" fill="#B7B7B7"/>
      <path d="M291.942,147.699 L279.255,135.011 C278.074,136.634 276.747,137.962 275.124,139.142 L287.664,151.682 C288.991,150.207 290.319,148.879 291.942,147.699 z" fill="#B7B7B7"/>
      <path d="M290.614,205.087 C289.139,203.907 287.369,202.874 285.451,202.136 C283.68,201.546 281.91,201.251 279.992,201.251 C270.698,201.251 263.174,208.775 263.174,218.069 C263.174,227.363 270.698,234.887 279.992,234.887 C289.287,234.887 296.81,227.363 296.81,218.069 C296.81,212.906 294.45,208.185 290.614,205.087 z" fill="#FF706A"/>
      <path d="M362.755,141.06 C355.969,141.06 350.51,146.518 350.51,153.305 C350.51,153.452 350.51,153.452 350.51,153.6 C350.51,155.665 351.101,157.583 351.986,159.206 C354.051,163.041 358.034,165.549 362.608,165.549 C369.394,165.549 374.852,160.091 374.852,153.305 C374.852,146.518 369.542,141.06 362.755,141.06 z" fill="#FFC86B"/>
      <path d="M262.141,100.785 C250.339,100.785 240.75,110.374 240.75,122.176 C240.75,133.979 250.339,143.568 262.141,143.568 C267.01,143.568 271.583,141.945 275.124,139.142 C276.747,137.962 278.074,136.487 279.255,135.011 C281.91,131.471 283.533,127.045 283.533,122.176 C283.533,110.374 273.944,100.785 262.141,100.785 z" fill="#8EDC6A"/>
      <path d="M333.692,164.074 C333.397,162.156 332.807,160.238 332.217,158.468 C328.234,148.879 318.94,142.093 307.875,142.093 C301.826,142.093 296.368,144.158 291.942,147.551 C290.467,148.731 288.991,150.059 287.811,151.682 C284.123,156.255 281.91,162.009 281.91,168.205 C281.91,176.909 286.188,184.581 292.827,189.449 C294.45,190.629 296.22,191.662 297.991,192.399 C301.089,193.727 304.482,194.465 308.023,194.465 C322.48,194.465 334.135,182.81 334.135,168.352 C333.987,166.877 333.84,165.402 333.692,164.074 z" fill="#34C0FF"/>
    </g>
    <g>
      <path d="M45.75,113.519 Q45.324,114.005 44.99,114.491 Q44.656,114.977 44.292,115.463 Q43.745,114.977 42.955,114.4 Q42.165,113.823 41.102,113.307 Q40.039,112.79 38.733,112.456 Q37.427,112.122 35.908,112.122 Q33.782,112.122 32.202,112.821 Q30.623,113.519 29.56,114.704 Q28.497,115.889 27.98,117.438 Q27.464,118.987 27.464,120.627 Q27.464,122.389 28.041,123.634 Q28.618,124.88 29.621,125.73 Q30.623,126.581 32.02,127.218 Q33.417,127.856 35.058,128.403 Q37.002,129.071 39.401,129.891 Q41.801,130.712 43.927,132.139 Q46.053,133.567 47.481,135.723 Q48.909,137.88 48.909,141.161 Q48.909,143.834 47.906,146.021 Q46.904,148.208 45.173,149.757 Q43.441,151.306 41.102,152.126 Q38.763,152.946 36.151,152.946 Q33.782,152.946 31.747,152.339 Q29.712,151.731 28.132,150.82 Q26.553,149.909 25.368,148.876 Q24.183,147.843 23.515,147.053 L25.216,145.352 Q26.067,146.203 27.16,147.114 Q28.254,148.025 29.56,148.785 Q30.866,149.544 32.445,150.03 Q34.025,150.516 35.847,150.516 Q37.913,150.516 39.796,149.878 Q41.679,149.24 43.137,148.056 Q44.595,146.871 45.476,145.17 Q46.357,143.469 46.357,141.282 Q46.357,138.548 45.142,136.786 Q43.927,135.025 42.135,133.87 Q40.343,132.716 38.217,131.987 Q36.09,131.258 34.268,130.651 Q33.114,130.286 31.565,129.679 Q30.015,129.071 28.588,127.978 Q27.16,126.884 26.097,125.214 Q25.034,123.543 24.973,121.052 Q24.852,119.048 25.429,117.012 Q26.006,114.977 27.342,113.367 Q28.679,111.758 30.805,110.725 Q32.931,109.692 35.969,109.692 Q38.277,109.692 40.677,110.482 Q43.077,111.272 45.75,113.519 z" fill="#B7B7B7"/>
      <path d="M57.14,131.258 Q57.14,126.763 58.841,122.784 Q60.542,118.805 63.489,115.858 Q66.435,112.912 70.384,111.18 Q74.333,109.449 78.828,109.449 Q83.324,109.449 87.303,111.18 Q91.282,112.912 94.228,115.858 Q97.175,118.805 98.906,122.784 Q100.637,126.763 100.637,131.258 Q100.637,135.754 98.906,139.702 Q97.175,143.651 94.228,146.598 Q91.282,149.544 87.303,151.245 Q83.324,152.946 78.828,152.946 Q74.333,152.946 70.384,151.245 Q66.435,149.544 63.489,146.598 Q60.542,143.651 58.841,139.702 Q57.14,135.754 57.14,131.258 z M59.692,131.319 Q59.692,135.329 61.18,138.822 Q62.669,142.315 65.281,144.897 Q67.893,147.479 71.356,148.997 Q74.819,150.516 78.767,150.516 Q82.716,150.516 86.24,148.997 Q89.763,147.479 92.406,144.866 Q95.048,142.254 96.567,138.761 Q98.086,135.268 98.086,131.258 Q98.086,127.249 96.567,123.725 Q95.048,120.202 92.436,117.559 Q89.824,114.917 86.3,113.398 Q82.777,111.879 78.828,111.879 Q74.879,111.879 71.386,113.428 Q67.893,114.977 65.281,117.62 Q62.669,120.263 61.18,123.786 Q59.692,127.31 59.692,131.319 z" fill="#B7B7B7"/>
      <path d="M139.548,147.843 L140.945,149.909 Q138.515,151.306 135.751,152.126 Q132.987,152.946 129.889,152.946 Q125.393,152.946 121.444,151.245 Q117.496,149.544 114.549,146.598 Q111.603,143.651 109.902,139.702 Q108.201,135.754 108.201,131.258 Q108.201,126.763 109.902,122.784 Q111.603,118.805 114.549,115.858 Q117.496,112.912 121.444,111.18 Q125.393,109.449 129.889,109.449 Q132.987,109.449 135.751,110.239 Q138.515,111.029 141.006,112.487 Q140.641,112.973 140.307,113.519 Q139.973,114.066 139.609,114.552 Q137.482,113.276 135.022,112.578 Q132.562,111.879 129.889,111.879 Q125.94,111.879 122.447,113.428 Q118.954,114.977 116.341,117.62 Q113.729,120.263 112.241,123.786 Q110.752,127.31 110.752,131.319 Q110.752,135.268 112.241,138.761 Q113.729,142.254 116.341,144.866 Q118.954,147.479 122.386,148.997 Q125.818,150.516 129.767,150.516 Q132.501,150.516 134.931,149.817 Q137.361,149.119 139.548,147.843 z" fill="#B7B7B7"/>
      <path d="M151.424,109.935 L153.915,109.935 L153.915,152.46 L151.424,152.46 z" fill="#B7B7B7"/>
      <path d="M183.197,112.304 Q183.075,111.879 182.923,111.454 Q182.771,111.029 182.65,110.603 Q181.07,115.22 179.096,119.716 Q177.122,124.211 175.178,128.768 L190.183,128.768 Q188.421,124.576 186.69,120.506 Q184.958,116.435 183.197,112.304 z M201.482,149.423 L198.931,149.423 Q196.987,144.866 195.073,140.31 Q193.16,135.754 191.216,131.198 L174.145,131.198 Q172.201,135.754 170.287,140.31 Q168.374,144.866 166.43,149.423 L163.818,149.423 Q168.556,138.245 173.234,127.188 Q177.911,116.132 182.65,104.954 Q187.389,116.132 192.066,127.188 Q196.744,138.245 201.482,149.423 z" fill="#B7B7B7"/>
      <path d="M210.291,152.46 L210.291,109.935 L212.782,109.935 L212.782,150.03 L236.353,150.03 L236.353,152.46 z" fill="#B7B7B7"/>
      <path d="M26.976,198.269 Q26.551,198.755 26.217,199.241 Q25.883,199.727 25.518,200.213 Q24.972,199.727 24.182,199.15 Q23.392,198.573 22.329,198.057 Q21.266,197.54 19.96,197.206 Q18.654,196.872 17.135,196.872 Q15.009,196.872 13.429,197.571 Q11.85,198.269 10.786,199.454 Q9.723,200.639 9.207,202.188 Q8.691,203.737 8.691,205.377 Q8.691,207.139 9.268,208.384 Q9.845,209.63 10.847,210.48 Q11.85,211.331 13.247,211.968 Q14.644,212.606 16.284,213.153 Q18.228,213.821 20.628,214.641 Q23.028,215.462 25.154,216.889 Q27.28,218.317 28.708,220.473 Q30.135,222.63 30.135,225.911 Q30.135,228.583 29.133,230.771 Q28.131,232.958 26.399,234.507 Q24.668,236.056 22.329,236.876 Q19.99,237.696 17.378,237.696 Q15.009,237.696 12.973,237.089 Q10.938,236.481 9.359,235.57 Q7.779,234.658 6.595,233.626 Q5.41,232.593 4.742,231.803 L6.443,230.102 Q7.293,230.953 8.387,231.864 Q9.48,232.775 10.786,233.535 Q12.093,234.294 13.672,234.78 Q15.252,235.266 17.074,235.266 Q19.14,235.266 21.023,234.628 Q22.906,233.99 24.364,232.806 Q25.822,231.621 26.703,229.92 Q27.584,228.219 27.584,226.032 Q27.584,223.298 26.369,221.536 Q25.154,219.775 23.362,218.62 Q21.57,217.466 19.443,216.737 Q17.317,216.008 15.495,215.401 Q14.34,215.036 12.791,214.429 Q11.242,213.821 9.814,212.728 Q8.387,211.634 7.324,209.964 Q6.261,208.293 6.2,205.802 Q6.078,203.798 6.655,201.762 Q7.233,199.727 8.569,198.117 Q9.906,196.508 12.032,195.475 Q14.158,194.442 17.196,194.442 Q19.504,194.442 21.904,195.232 Q24.303,196.021 26.976,198.269 z" fill="#B7B7B7"/>
      <path d="M39.764,237.21 L39.764,194.685 L64.975,194.685 L64.975,197.115 L42.255,197.115 L42.255,214.55 L62.606,214.55 L62.606,216.98 L42.255,216.98 L42.255,234.78 L65.826,234.78 L65.826,237.21 z" fill="#B7B7B7"/>
      <path d="M114.304,194.685 L114.304,239.154 Q105.799,229.373 97.477,219.744 Q89.154,210.116 80.71,200.335 Q80.406,199.91 80.133,199.545 Q79.859,199.18 79.555,198.755 Q79.616,199.241 79.647,199.727 Q79.677,200.213 79.738,200.699 L79.738,237.21 L77.186,237.21 L77.186,192.741 Q85.691,202.643 94.014,212.333 Q102.337,222.023 110.781,231.864 Q111.085,232.289 111.358,232.654 Q111.631,233.018 111.935,233.443 Q111.874,232.958 111.844,232.471 Q111.814,231.986 111.753,231.499 L111.753,194.685 z" fill="#B7B7B7"/>
      <path d="M146.411,198.269 Q145.986,198.755 145.652,199.241 Q145.317,199.727 144.953,200.213 Q144.406,199.727 143.616,199.15 Q142.827,198.573 141.764,198.057 Q140.7,197.54 139.394,197.206 Q138.088,196.872 136.569,196.872 Q134.443,196.872 132.864,197.571 Q131.284,198.269 130.221,199.454 Q129.158,200.639 128.642,202.188 Q128.125,203.737 128.125,205.377 Q128.125,207.139 128.702,208.384 Q129.279,209.63 130.282,210.48 Q131.284,211.331 132.681,211.968 Q134.079,212.606 135.719,213.153 Q137.663,213.821 140.063,214.641 Q142.462,215.462 144.588,216.889 Q146.715,218.317 148.142,220.473 Q149.57,222.63 149.57,225.911 Q149.57,228.583 148.568,230.771 Q147.565,232.958 145.834,234.507 Q144.102,236.056 141.764,236.876 Q139.425,237.696 136.812,237.696 Q134.443,237.696 132.408,237.089 Q130.373,236.481 128.793,235.57 Q127.214,234.658 126.029,233.626 Q124.845,232.593 124.176,231.803 L125.877,230.102 Q126.728,230.953 127.821,231.864 Q128.915,232.775 130.221,233.535 Q131.527,234.294 133.107,234.78 Q134.686,235.266 136.509,235.266 Q138.574,235.266 140.457,234.628 Q142.341,233.99 143.799,232.806 Q145.257,231.621 146.138,229.92 Q147.018,228.219 147.018,226.032 Q147.018,223.298 145.803,221.536 Q144.588,219.775 142.796,218.62 Q141.004,217.466 138.878,216.737 Q136.752,216.008 134.929,215.401 Q133.775,215.036 132.226,214.429 Q130.677,213.821 129.249,212.728 Q127.821,211.634 126.758,209.964 Q125.695,208.293 125.634,205.802 Q125.513,203.798 126.09,201.762 Q126.667,199.727 128.004,198.117 Q129.34,196.508 131.466,195.475 Q133.593,194.442 136.63,194.442 Q138.939,194.442 141.338,195.232 Q143.738,196.021 146.411,198.269 z" fill="#B7B7B7"/>
      <path d="M160.353,194.685 L162.844,194.685 L162.844,237.21 L160.353,237.21 z" fill="#B7B7B7"/>
      <path d="M212.294,194.685 L212.294,239.154 Q203.789,229.373 195.467,219.744 Q187.144,210.116 178.7,200.335 Q178.396,199.91 178.122,199.545 Q177.849,199.18 177.545,198.755 Q177.606,199.241 177.636,199.727 Q177.667,200.213 177.728,200.699 L177.728,237.21 L175.176,237.21 L175.176,192.741 Q183.681,202.643 192.004,212.333 Q200.327,222.023 208.771,231.864 Q209.075,232.289 209.348,232.654 Q209.621,233.018 209.925,233.443 Q209.864,232.958 209.834,232.471 Q209.804,231.986 209.743,231.499 L209.743,194.685 z" fill="#B7B7B7"/>
      <path d="M243.733,221.415 L243.733,218.985 L251.752,218.985 Q253.574,218.985 254.303,219.653 Q255.032,220.322 255.032,222.083 L255.032,234.658 Q252.602,236.056 249.838,236.876 Q247.074,237.696 243.976,237.696 Q239.48,237.696 235.531,235.995 Q231.583,234.294 228.636,231.348 Q225.69,228.401 223.989,224.452 Q222.288,220.504 222.288,216.008 Q222.288,211.513 223.989,207.534 Q225.69,203.555 228.636,200.608 Q231.583,197.662 235.531,195.93 Q239.48,194.199 243.976,194.199 Q247.074,194.199 249.838,194.989 Q252.602,195.779 255.093,197.236 Q254.728,197.723 254.394,198.269 Q254.06,198.816 253.696,199.302 Q251.569,198.026 249.109,197.328 Q246.649,196.629 243.976,196.629 Q240.027,196.629 236.534,198.178 Q233.041,199.727 230.428,202.37 Q227.816,205.012 226.328,208.536 Q224.839,212.059 224.839,216.069 Q224.839,220.018 226.328,223.511 Q227.816,227.004 230.428,229.616 Q233.041,232.229 236.473,233.747 Q239.905,235.266 243.854,235.266 Q248.471,235.266 252.481,233.201 L252.481,225.546 L252.481,222.995 Q252.481,222.266 252.177,221.84 Q251.873,221.415 250.84,221.415 z" fill="#B7B7B7"/>
    </g>
  </g>
</svg>
